<svg width="30" height="30" viewBox="0 0 30 30" fill="none" xmlns="http://www.w3.org/2000/svg">
<path d="M14.9938 0C8.36491 0 2.96869 5.39623 2.96869 12.0252C2.96869 12.7799 3.03787 13.5409 3.18253 14.283C3.18881 14.327 3.21397 14.4591 3.26429 14.6855C3.44668 15.4969 3.71712 16.2956 4.06932 17.0566C5.36491 20.1069 8.21397 24.7925 14.4655 29.8113C14.6228 29.9371 14.8115 30 15.0001 30C15.1888 30 15.3775 29.9371 15.5347 29.8113C21.78 24.7925 24.6353 20.1069 25.9309 17.0566C26.2831 16.2956 26.5536 15.5031 26.736 14.6855C26.7863 14.4591 26.8115 14.327 26.8177 14.283C26.9561 13.5409 27.0316 12.7799 27.0316 12.0252C27.019 5.39623 21.6228 0 14.9938 0ZM25.1322 13.9874C25.1322 14 25.1259 14.0126 25.1259 14.0252C25.1196 14.0566 25.1008 14.1509 25.0693 14.2956C25.0693 14.3019 25.0693 14.3019 25.0693 14.3082C24.9121 15.0126 24.6794 15.6981 24.3712 16.3585C24.3649 16.3648 24.3649 16.3774 24.3586 16.3836C23.1825 19.1698 20.6039 23.4214 14.9938 28.0566C9.38378 23.4214 6.80517 19.1698 5.62907 16.3836C5.62278 16.3774 5.62278 16.3648 5.61649 16.3585C5.3146 15.7044 5.0819 15.0126 4.91837 14.3082C4.91837 14.3019 4.91837 14.3019 4.91837 14.2956C4.88064 14.1509 4.86806 14.0566 4.86177 14.0252C4.86177 14.0126 4.85548 14 4.85548 13.9811C4.72969 13.3333 4.6668 12.6792 4.6668 12.0189C4.6668 6.32704 9.30202 1.69182 14.9938 1.69182C20.6857 1.69182 25.3209 6.32704 25.3209 12.0189C25.3209 12.6855 25.258 13.3459 25.1322 13.9874Z" fill="#2F3035"/>
<path d="M14.9939 4.52197C10.7863 4.52197 7.35864 7.94965 7.35864 12.1572C7.35864 16.3647 10.7863 19.7924 14.9939 19.7924C19.2014 19.7924 22.6291 16.3647 22.6291 12.1572C22.6291 7.94965 19.2014 4.52197 14.9939 4.52197ZM14.9939 18.0943C11.7171 18.0943 9.05675 15.4276 9.05675 12.1572C9.05675 8.88675 11.7234 6.22009 14.9939 6.22009C18.2643 6.22009 20.931 8.88675 20.931 12.1572C20.931 15.4276 18.2706 18.0943 14.9939 18.0943Z" fill="#2F3035"/>
</svg>
